# xmcd
#
# Track frame offsets: 
#        150
#        17962
#        39735
#        61201
#        80567
#        98881
#        117334
#        136937
#        158492
#        179244
#
# Disc length: 2817 seconds
#
# Revision: 0
# Processed by: cddbd v1.5.2PL0 Copyright (c) Steve Scherf et al.
# Submitted via: ExactAudioCopy v1.0b3
#
DISCID=850aff0a
DTITLE=SUDØ - Caligula
DYEAR=2013
DGENRE=Ballad
TTITLE0=Soul Balsam
TTITLE1=Snow
TTITLE2=Endless Highway
TTITLE3=Phantom
TTITLE4=Resonance
TTITLE5=Dog and Master
TTITLE6=Gaius Calicula
TTITLE7=Red
TTITLE8=Burn
TTITLE9=Sunrise
EXTD=
EXTT0=
EXTT1=
EXTT2=
EXTT3=
EXTT4=
EXTT5=
EXTT6=
EXTT7=
EXTT8=
EXTT9=
PLAYORDER=
